<?xml version="1.0" encoding="UTF-8" standalone="no"?>
<svg width="801px" height="601px" viewBox="0 0 801 601" version="1.1" xmlns="http://www.w3.org/2000/svg" xmlns:xlink="http://www.w3.org/1999/xlink" xmlns:sketch="http://www.bohemiancoding.com/sketch/ns">
    <!-- Generator: Sketch 3.0.4 (8053) - http://www.bohemiancoding.com/sketch -->
    <title>Background</title>
    <desc>Created with Sketch.</desc>
    <defs></defs>
    <g id="Page-1" stroke="none" stroke-width="1" fill="none" fill-rule="evenodd" sketch:type="MSPage">
        <g id="Background" sketch:type="MSLayerGroup" transform="translate(0.000000, 1.000000)">
            <rect id="Rectangle-1" stroke="#979797" fill="#D8D8D8" sketch:type="MSShapeGroup" x="1" y="0" width="800" height="600"></rect>
            <rect id="Rectangle-2" stroke="#4D4D4D" fill="#4D4D4D" sketch:type="MSShapeGroup" x="0" y="225" width="799" height="150"></rect>
            <rect id="Rectangle-3" stroke="#4D4D4D" fill="#4D4D4D" sketch:type="MSShapeGroup" transform="translate(401.000000, 300.000000) rotate(-90.000000) translate(-401.000000, -300.000000) " x="101" y="225" width="600.0625" height="150"></rect>
            <rect id="Rectangle-4" fill="#FFFFFF" sketch:type="MSShapeGroup" x="2" y="298" width="62" height="4"></rect>
            <rect id="Rectangle-6" fill="#FFFFFF" sketch:type="MSShapeGroup" x="208" y="298" width="62" height="4"></rect>
            <g id="Group" transform="translate(2.000000, 298.000000)" fill="#FFFFFF" sketch:type="MSShapeGroup">
                <rect id="Rectangle-5" x="103" y="0" width="62" height="4"></rect>
                <rect id="Rectangle-9" x="206" y="0" width="118" height="4"></rect>
                <rect id="Rectangle-8" x="0" y="0" width="62" height="4"></rect>
                <rect id="Rectangle-7" transform="translate(319.000000, 38.500000) rotate(-90.000000) translate(-319.000000, -38.500000) " x="281" y="33.5" width="76" height="10"></rect>
            </g>
            <g id="Group-2" transform="translate(638.000000, 263.500000) scale(-1, -1) translate(-638.000000, -263.500000) translate(476.000000, 225.000000)" fill="#FFFFFF" sketch:type="MSShapeGroup">
                <rect id="Rectangle-5" x="103" y="0" width="62" height="4"></rect>
                <rect id="Rectangle-9" x="206" y="0" width="118" height="4"></rect>
                <rect id="Rectangle-8" x="0" y="0" width="62" height="4"></rect>
                <rect id="Rectangle-7" transform="translate(319.000000, 38.500000) rotate(-90.000000) translate(-319.000000, -38.500000) " x="281" y="33.5" width="76" height="10"></rect>
            </g>
            <g id="Group-3" transform="translate(365.000000, 114.000000) scale(-1, -1) rotate(-90.000000) translate(-365.000000, -114.000000) translate(254.500000, 75.500000)" fill="#FFFFFF" sketch:type="MSShapeGroup">
                <rect id="Rectangle-5" x="0" y="-5.68434189e-14" width="62" height="4"></rect>
                <rect id="Rectangle-9" x="103" y="-5.68434189e-14" width="118" height="4"></rect>
                <rect id="Rectangle-7" transform="translate(216.000000, 38.500000) rotate(-90.000000) translate(-216.000000, -38.500000) " x="178" y="33.5" width="76" height="10"></rect>
            </g>
            <g id="Group-4" transform="translate(437.000000, 486.000000) rotate(-90.000000) translate(-437.000000, -486.000000) translate(326.500000, 447.500000)" fill="#FFFFFF" sketch:type="MSShapeGroup">
                <rect id="Rectangle-5" x="0" y="-5.68434189e-14" width="62" height="4"></rect>
                <rect id="Rectangle-9" x="103" y="-5.68434189e-14" width="118" height="4"></rect>
                <rect id="Rectangle-7" transform="translate(216.000000, 38.500000) rotate(-90.000000) translate(-216.000000, -38.500000) " x="178" y="33.5" width="76" height="10"></rect>
            </g>
        </g>
    </g>
</svg>